<mxfile host="app.diagrams.net" modified="2022-01-25T20:44:15.261Z" agent="5.0 (Windows NT 10.0; Win64; x64) AppleWebKit/537.36 (KHTML, like Gecko) Chrome/97.0.4692.71 Safari/537.36" etag="4OQ2tPndwi9mPMT9_7bB" version="16.4.5" type="github">
  <diagram id="lNChuExCNkG-BRZfLiYN" name="Page-1">
    <mxGraphModel dx="970" dy="535" grid="1" gridSize="10" guides="1" tooltips="1" connect="1" arrows="1" fold="1" page="1" pageScale="1" pageWidth="850" pageHeight="1100" math="0" shadow="0">
      <root>
        <mxCell id="0" />
        <mxCell id="1" parent="0" />
        <mxCell id="LpT9JigKocmM7MYaPKFG-1" style="edgeStyle=orthogonalEdgeStyle;rounded=0;orthogonalLoop=1;jettySize=auto;html=1;exitX=0.5;exitY=1;exitDx=0;exitDy=0;exitPerimeter=0;" edge="1" parent="1" source="LpT9JigKocmM7MYaPKFG-2" target="LpT9JigKocmM7MYaPKFG-4">
          <mxGeometry relative="1" as="geometry" />
        </mxCell>
        <mxCell id="LpT9JigKocmM7MYaPKFG-2" value="Clauses Filter Start" style="strokeWidth=2;html=1;shape=mxgraph.flowchart.start_1;whiteSpace=wrap;" vertex="1" parent="1">
          <mxGeometry x="1280" y="418" width="100" height="60" as="geometry" />
        </mxCell>
        <mxCell id="LpT9JigKocmM7MYaPKFG-3" style="edgeStyle=orthogonalEdgeStyle;rounded=0;orthogonalLoop=1;jettySize=auto;html=1;exitX=0.5;exitY=1;exitDx=0;exitDy=0;entryX=0.5;entryY=0;entryDx=0;entryDy=0;entryPerimeter=0;fontFamily=Helvetica;fontSize=20;" edge="1" parent="1" source="LpT9JigKocmM7MYaPKFG-4" target="LpT9JigKocmM7MYaPKFG-6">
          <mxGeometry relative="1" as="geometry" />
        </mxCell>
        <mxCell id="LpT9JigKocmM7MYaPKFG-4" value="Clause" style="shape=parallelogram;html=1;strokeWidth=2;perimeter=parallelogramPerimeter;whiteSpace=wrap;rounded=1;arcSize=12;size=0.23;" vertex="1" parent="1">
          <mxGeometry x="1280" y="535" width="100" height="60" as="geometry" />
        </mxCell>
        <mxCell id="LpT9JigKocmM7MYaPKFG-5" style="edgeStyle=orthogonalEdgeStyle;rounded=0;orthogonalLoop=1;jettySize=auto;html=1;exitX=0.5;exitY=1;exitDx=0;exitDy=0;exitPerimeter=0;entryX=0.5;entryY=0;entryDx=0;entryDy=0;" edge="1" parent="1" source="LpT9JigKocmM7MYaPKFG-6" target="LpT9JigKocmM7MYaPKFG-11">
          <mxGeometry relative="1" as="geometry" />
        </mxCell>
        <mxCell id="LpT9JigKocmM7MYaPKFG-6" value="Alternatives Filter Start" style="strokeWidth=2;html=1;shape=mxgraph.flowchart.start_1;whiteSpace=wrap;" vertex="1" parent="1">
          <mxGeometry x="1280" y="668" width="100" height="60" as="geometry" />
        </mxCell>
        <mxCell id="LpT9JigKocmM7MYaPKFG-7" style="edgeStyle=orthogonalEdgeStyle;rounded=0;orthogonalLoop=1;jettySize=auto;html=1;entryX=0.5;entryY=0;entryDx=0;entryDy=0;entryPerimeter=0;" edge="1" parent="1" source="LpT9JigKocmM7MYaPKFG-9" target="LpT9JigKocmM7MYaPKFG-14">
          <mxGeometry relative="1" as="geometry" />
        </mxCell>
        <mxCell id="LpT9JigKocmM7MYaPKFG-8" style="edgeStyle=orthogonalEdgeStyle;rounded=0;orthogonalLoop=1;jettySize=auto;html=1;exitX=0;exitY=0.5;exitDx=0;exitDy=0;entryX=1;entryY=0.5;entryDx=0;entryDy=0;" edge="1" parent="1" source="LpT9JigKocmM7MYaPKFG-9" target="LpT9JigKocmM7MYaPKFG-30">
          <mxGeometry relative="1" as="geometry" />
        </mxCell>
        <mxCell id="LpT9JigKocmM7MYaPKFG-9" value="Next Alternative" style="rounded=1;whiteSpace=wrap;html=1;absoluteArcSize=1;arcSize=14;strokeWidth=2;" vertex="1" parent="1">
          <mxGeometry x="1280" y="934" width="100" height="50" as="geometry" />
        </mxCell>
        <mxCell id="LpT9JigKocmM7MYaPKFG-10" style="edgeStyle=orthogonalEdgeStyle;rounded=0;orthogonalLoop=1;jettySize=auto;html=1;exitX=0.5;exitY=1;exitDx=0;exitDy=0;entryX=0.5;entryY=0;entryDx=0;entryDy=0;" edge="1" parent="1" source="LpT9JigKocmM7MYaPKFG-11" target="LpT9JigKocmM7MYaPKFG-9">
          <mxGeometry relative="1" as="geometry" />
        </mxCell>
        <mxCell id="LpT9JigKocmM7MYaPKFG-11" value="Alternative List" style="shape=parallelogram;html=1;strokeWidth=2;perimeter=parallelogramPerimeter;whiteSpace=wrap;rounded=1;arcSize=12;size=0.23;" vertex="1" parent="1">
          <mxGeometry x="1280" y="801" width="100" height="60" as="geometry" />
        </mxCell>
        <mxCell id="LpT9JigKocmM7MYaPKFG-12" value="" style="edgeStyle=orthogonalEdgeStyle;rounded=0;orthogonalLoop=1;jettySize=auto;html=1;" edge="1" parent="1" source="LpT9JigKocmM7MYaPKFG-14" target="LpT9JigKocmM7MYaPKFG-17">
          <mxGeometry relative="1" as="geometry" />
        </mxCell>
        <mxCell id="LpT9JigKocmM7MYaPKFG-13" style="edgeStyle=orthogonalEdgeStyle;rounded=0;orthogonalLoop=1;jettySize=auto;html=1;entryX=1;entryY=0.5;entryDx=0;entryDy=0;" edge="1" parent="1" source="LpT9JigKocmM7MYaPKFG-14" target="LpT9JigKocmM7MYaPKFG-21">
          <mxGeometry relative="1" as="geometry" />
        </mxCell>
        <mxCell id="LpT9JigKocmM7MYaPKFG-14" value="Alternative has conditions" style="strokeWidth=2;html=1;shape=mxgraph.flowchart.decision;whiteSpace=wrap;" vertex="1" parent="1">
          <mxGeometry x="1280" y="1073" width="100" height="100" as="geometry" />
        </mxCell>
        <mxCell id="LpT9JigKocmM7MYaPKFG-15" style="edgeStyle=orthogonalEdgeStyle;rounded=0;orthogonalLoop=1;jettySize=auto;html=1;exitX=1;exitY=0.5;exitDx=0;exitDy=0;" edge="1" parent="1" source="LpT9JigKocmM7MYaPKFG-17" target="LpT9JigKocmM7MYaPKFG-19">
          <mxGeometry relative="1" as="geometry" />
        </mxCell>
        <mxCell id="LpT9JigKocmM7MYaPKFG-16" style="edgeStyle=orthogonalEdgeStyle;rounded=0;orthogonalLoop=1;jettySize=auto;html=1;exitX=0.5;exitY=0;exitDx=0;exitDy=0;entryX=0.5;entryY=1;entryDx=0;entryDy=0;" edge="1" parent="1" source="LpT9JigKocmM7MYaPKFG-17" target="LpT9JigKocmM7MYaPKFG-28">
          <mxGeometry relative="1" as="geometry" />
        </mxCell>
        <mxCell id="LpT9JigKocmM7MYaPKFG-17" value="Alternative Required" style="rhombus;whiteSpace=wrap;html=1;strokeWidth=2;" vertex="1" parent="1">
          <mxGeometry x="1470" y="1083" width="80" height="80" as="geometry" />
        </mxCell>
        <mxCell id="LpT9JigKocmM7MYaPKFG-18" style="edgeStyle=orthogonalEdgeStyle;rounded=0;orthogonalLoop=1;jettySize=auto;html=1;exitX=0.5;exitY=0;exitDx=0;exitDy=0;entryX=1;entryY=0.5;entryDx=0;entryDy=0;" edge="1" parent="1" source="LpT9JigKocmM7MYaPKFG-19" target="LpT9JigKocmM7MYaPKFG-9">
          <mxGeometry relative="1" as="geometry" />
        </mxCell>
        <mxCell id="LpT9JigKocmM7MYaPKFG-19" value="Include in outline" style="rounded=1;whiteSpace=wrap;html=1;absoluteArcSize=1;arcSize=14;strokeWidth=2;" vertex="1" parent="1">
          <mxGeometry x="1624" y="1103" width="100" height="40" as="geometry" />
        </mxCell>
        <mxCell id="LpT9JigKocmM7MYaPKFG-20" value="" style="edgeStyle=orthogonalEdgeStyle;rounded=0;orthogonalLoop=1;jettySize=auto;html=1;" edge="1" parent="1" source="LpT9JigKocmM7MYaPKFG-21" target="LpT9JigKocmM7MYaPKFG-24">
          <mxGeometry relative="1" as="geometry" />
        </mxCell>
        <mxCell id="LpT9JigKocmM7MYaPKFG-21" value="Match Conditions With Wizard" style="rounded=1;whiteSpace=wrap;html=1;absoluteArcSize=1;arcSize=14;strokeWidth=2;" vertex="1" parent="1">
          <mxGeometry x="1090" y="1100.5" width="100" height="45" as="geometry" />
        </mxCell>
        <mxCell id="LpT9JigKocmM7MYaPKFG-22" style="edgeStyle=orthogonalEdgeStyle;rounded=0;orthogonalLoop=1;jettySize=auto;html=1;exitX=1;exitY=0.5;exitDx=0;exitDy=0;entryX=0.5;entryY=1;entryDx=0;entryDy=0;" edge="1" parent="1" source="LpT9JigKocmM7MYaPKFG-24" target="LpT9JigKocmM7MYaPKFG-19">
          <mxGeometry relative="1" as="geometry" />
        </mxCell>
        <mxCell id="LpT9JigKocmM7MYaPKFG-23" style="edgeStyle=orthogonalEdgeStyle;rounded=0;orthogonalLoop=1;jettySize=auto;html=1;exitX=0.5;exitY=1;exitDx=0;exitDy=0;entryX=0.5;entryY=0;entryDx=0;entryDy=0;" edge="1" parent="1" source="LpT9JigKocmM7MYaPKFG-24" target="LpT9JigKocmM7MYaPKFG-26">
          <mxGeometry relative="1" as="geometry" />
        </mxCell>
        <mxCell id="LpT9JigKocmM7MYaPKFG-24" value="If Match" style="rhombus;whiteSpace=wrap;html=1;rounded=1;arcSize=14;strokeWidth=2;" vertex="1" parent="1">
          <mxGeometry x="1100" y="1208" width="80" height="80" as="geometry" />
        </mxCell>
        <mxCell id="LpT9JigKocmM7MYaPKFG-25" style="edgeStyle=orthogonalEdgeStyle;rounded=0;orthogonalLoop=1;jettySize=auto;html=1;exitX=1;exitY=0.5;exitDx=0;exitDy=0;entryX=1;entryY=0.5;entryDx=0;entryDy=0;" edge="1" parent="1" source="LpT9JigKocmM7MYaPKFG-26" target="LpT9JigKocmM7MYaPKFG-9">
          <mxGeometry relative="1" as="geometry">
            <Array as="points">
              <mxPoint x="1768" y="1358" />
              <mxPoint x="1768" y="959" />
            </Array>
          </mxGeometry>
        </mxCell>
        <mxCell id="LpT9JigKocmM7MYaPKFG-26" value="Exclude from outline" style="rounded=1;whiteSpace=wrap;html=1;absoluteArcSize=1;arcSize=14;strokeWidth=2;" vertex="1" parent="1">
          <mxGeometry x="1090" y="1338" width="100" height="40" as="geometry" />
        </mxCell>
        <mxCell id="LpT9JigKocmM7MYaPKFG-27" style="edgeStyle=orthogonalEdgeStyle;rounded=0;orthogonalLoop=1;jettySize=auto;html=1;exitX=0.5;exitY=0;exitDx=0;exitDy=0;entryX=1;entryY=0.5;entryDx=0;entryDy=0;" edge="1" parent="1" source="LpT9JigKocmM7MYaPKFG-28" target="LpT9JigKocmM7MYaPKFG-9">
          <mxGeometry relative="1" as="geometry" />
        </mxCell>
        <mxCell id="LpT9JigKocmM7MYaPKFG-28" value="Exclude from outline" style="rounded=1;whiteSpace=wrap;html=1;absoluteArcSize=1;arcSize=14;strokeWidth=2;" vertex="1" parent="1">
          <mxGeometry x="1460" y="996" width="100" height="38" as="geometry" />
        </mxCell>
        <mxCell id="LpT9JigKocmM7MYaPKFG-29" style="edgeStyle=orthogonalEdgeStyle;rounded=0;orthogonalLoop=1;jettySize=auto;html=1;exitX=0;exitY=0.5;exitDx=0;exitDy=0;entryX=1;entryY=0.5;entryDx=0;entryDy=0;" edge="1" parent="1" source="LpT9JigKocmM7MYaPKFG-30" target="LpT9JigKocmM7MYaPKFG-32">
          <mxGeometry relative="1" as="geometry">
            <mxPoint x="980" y="1027" as="targetPoint" />
            <Array as="points">
              <mxPoint x="1090" y="960" />
            </Array>
          </mxGeometry>
        </mxCell>
        <mxCell id="LpT9JigKocmM7MYaPKFG-30" value="Make the checked alternative active" style="rounded=1;whiteSpace=wrap;html=1;absoluteArcSize=1;arcSize=14;strokeWidth=2;" vertex="1" parent="1">
          <mxGeometry x="1090" y="930" width="100" height="58" as="geometry" />
        </mxCell>
        <mxCell id="LpT9JigKocmM7MYaPKFG-31" style="edgeStyle=orthogonalEdgeStyle;rounded=0;orthogonalLoop=1;jettySize=auto;html=1;exitX=0.5;exitY=1;exitDx=0;exitDy=0;entryX=0;entryY=0.5;entryDx=0;entryDy=0;entryPerimeter=0;" edge="1" parent="1" source="LpT9JigKocmM7MYaPKFG-32" target="LpT9JigKocmM7MYaPKFG-34">
          <mxGeometry relative="1" as="geometry" />
        </mxCell>
        <mxCell id="LpT9JigKocmM7MYaPKFG-32" value="Return alternatives included in outline" style="shape=parallelogram;html=1;strokeWidth=2;perimeter=parallelogramPerimeter;whiteSpace=wrap;rounded=1;arcSize=12;size=0.23;" vertex="1" parent="1">
          <mxGeometry x="693" y="930" width="307" height="60" as="geometry" />
        </mxCell>
        <mxCell id="LpT9JigKocmM7MYaPKFG-33" style="edgeStyle=orthogonalEdgeStyle;rounded=0;orthogonalLoop=1;jettySize=auto;html=1;exitX=0.5;exitY=1;exitDx=0;exitDy=0;exitPerimeter=0;entryX=0.5;entryY=0;entryDx=0;entryDy=0;" edge="1" parent="1" source="LpT9JigKocmM7MYaPKFG-34" target="LpT9JigKocmM7MYaPKFG-36">
          <mxGeometry relative="1" as="geometry" />
        </mxCell>
        <mxCell id="LpT9JigKocmM7MYaPKFG-34" value="Alternative filter End" style="strokeWidth=2;html=1;shape=mxgraph.flowchart.terminator;whiteSpace=wrap;" vertex="1" parent="1">
          <mxGeometry x="1280" y="1458" width="100" height="60" as="geometry" />
        </mxCell>
        <mxCell id="LpT9JigKocmM7MYaPKFG-35" value="" style="edgeStyle=orthogonalEdgeStyle;rounded=0;orthogonalLoop=1;jettySize=auto;html=1;" edge="1" parent="1" source="LpT9JigKocmM7MYaPKFG-36" target="LpT9JigKocmM7MYaPKFG-39">
          <mxGeometry relative="1" as="geometry" />
        </mxCell>
        <mxCell id="LpT9JigKocmM7MYaPKFG-36" value="Filter sub clauses recursive" style="rounded=1;whiteSpace=wrap;html=1;absoluteArcSize=1;arcSize=14;strokeWidth=2;" vertex="1" parent="1">
          <mxGeometry x="1280" y="1588" width="100" height="55" as="geometry" />
        </mxCell>
        <mxCell id="LpT9JigKocmM7MYaPKFG-37" style="edgeStyle=orthogonalEdgeStyle;rounded=0;orthogonalLoop=1;jettySize=auto;html=1;exitX=0;exitY=0.5;exitDx=0;exitDy=0;" edge="1" parent="1" source="LpT9JigKocmM7MYaPKFG-39" target="LpT9JigKocmM7MYaPKFG-41">
          <mxGeometry relative="1" as="geometry" />
        </mxCell>
        <mxCell id="LpT9JigKocmM7MYaPKFG-38" style="edgeStyle=orthogonalEdgeStyle;rounded=0;orthogonalLoop=1;jettySize=auto;html=1;exitX=1;exitY=0.5;exitDx=0;exitDy=0;entryX=0;entryY=0.5;entryDx=0;entryDy=0;fontFamily=Helvetica;fontSize=20;" edge="1" parent="1" source="LpT9JigKocmM7MYaPKFG-39" target="LpT9JigKocmM7MYaPKFG-47">
          <mxGeometry relative="1" as="geometry" />
        </mxCell>
        <mxCell id="LpT9JigKocmM7MYaPKFG-39" value="Alternatives included in outline &amp;gt; 0" style="rhombus;whiteSpace=wrap;html=1;rounded=1;arcSize=14;strokeWidth=2;" vertex="1" parent="1">
          <mxGeometry x="1235" y="1710.5" width="190" height="95.5" as="geometry" />
        </mxCell>
        <mxCell id="LpT9JigKocmM7MYaPKFG-40" style="edgeStyle=orthogonalEdgeStyle;rounded=0;orthogonalLoop=1;jettySize=auto;html=1;exitX=0.5;exitY=1;exitDx=0;exitDy=0;entryX=0;entryY=0.25;entryDx=0;entryDy=0;" edge="1" parent="1" source="LpT9JigKocmM7MYaPKFG-41" target="LpT9JigKocmM7MYaPKFG-51">
          <mxGeometry relative="1" as="geometry">
            <Array as="points">
              <mxPoint x="1115" y="1909" />
            </Array>
          </mxGeometry>
        </mxCell>
        <mxCell id="LpT9JigKocmM7MYaPKFG-41" value="Exclude from outline" style="rounded=1;whiteSpace=wrap;html=1;absoluteArcSize=1;arcSize=14;strokeWidth=2;" vertex="1" parent="1">
          <mxGeometry x="1065" y="1708" width="100" height="100" as="geometry" />
        </mxCell>
        <mxCell id="LpT9JigKocmM7MYaPKFG-42" style="edgeStyle=orthogonalEdgeStyle;rounded=0;orthogonalLoop=1;jettySize=auto;html=1;exitX=1;exitY=0.5;exitDx=0;exitDy=0;entryX=0;entryY=0.5;entryDx=0;entryDy=0;fontFamily=Helvetica;fontSize=20;" edge="1" parent="1" source="LpT9JigKocmM7MYaPKFG-43" target="LpT9JigKocmM7MYaPKFG-45">
          <mxGeometry relative="1" as="geometry" />
        </mxCell>
        <mxCell id="LpT9JigKocmM7MYaPKFG-43" value="Take checked alternative" style="rounded=1;whiteSpace=wrap;html=1;absoluteArcSize=1;arcSize=14;strokeWidth=2;" vertex="1" parent="1">
          <mxGeometry x="1659" y="1708" width="100" height="100" as="geometry" />
        </mxCell>
        <mxCell id="LpT9JigKocmM7MYaPKFG-44" style="edgeStyle=orthogonalEdgeStyle;rounded=0;orthogonalLoop=1;jettySize=auto;html=1;exitX=1;exitY=0.5;exitDx=0;exitDy=0;entryX=0;entryY=0.5;entryDx=0;entryDy=0;fontFamily=Helvetica;fontSize=20;" edge="1" parent="1" source="LpT9JigKocmM7MYaPKFG-45" target="LpT9JigKocmM7MYaPKFG-49">
          <mxGeometry relative="1" as="geometry" />
        </mxCell>
        <mxCell id="LpT9JigKocmM7MYaPKFG-45" value="Checked found" style="rhombus;whiteSpace=wrap;html=1;rounded=1;arcSize=14;strokeWidth=2;" vertex="1" parent="1">
          <mxGeometry x="1820" y="1718" width="80" height="80" as="geometry" />
        </mxCell>
        <mxCell id="LpT9JigKocmM7MYaPKFG-46" style="edgeStyle=orthogonalEdgeStyle;rounded=0;orthogonalLoop=1;jettySize=auto;html=1;exitX=1;exitY=0.5;exitDx=0;exitDy=0;entryX=0;entryY=0.5;entryDx=0;entryDy=0;fontFamily=Helvetica;fontSize=20;" edge="1" parent="1" source="LpT9JigKocmM7MYaPKFG-47" target="LpT9JigKocmM7MYaPKFG-43">
          <mxGeometry relative="1" as="geometry" />
        </mxCell>
        <mxCell id="LpT9JigKocmM7MYaPKFG-47" value="Include clause in outline" style="rounded=1;whiteSpace=wrap;html=1;absoluteArcSize=1;arcSize=14;strokeWidth=2;" vertex="1" parent="1">
          <mxGeometry x="1498" y="1708" width="100" height="100" as="geometry" />
        </mxCell>
        <mxCell id="LpT9JigKocmM7MYaPKFG-48" style="edgeStyle=orthogonalEdgeStyle;rounded=0;orthogonalLoop=1;jettySize=auto;html=1;exitX=0.5;exitY=1;exitDx=0;exitDy=0;entryX=1;entryY=0.25;entryDx=0;entryDy=0;" edge="1" parent="1" source="LpT9JigKocmM7MYaPKFG-49" target="LpT9JigKocmM7MYaPKFG-51">
          <mxGeometry relative="1" as="geometry">
            <Array as="points">
              <mxPoint x="2002" y="1906" />
            </Array>
          </mxGeometry>
        </mxCell>
        <mxCell id="LpT9JigKocmM7MYaPKFG-49" value="Clause active = true" style="rounded=1;whiteSpace=wrap;html=1;absoluteArcSize=1;arcSize=14;strokeWidth=2;" vertex="1" parent="1">
          <mxGeometry x="1936" y="1708.25" width="131" height="100" as="geometry" />
        </mxCell>
        <mxCell id="LpT9JigKocmM7MYaPKFG-50" style="edgeStyle=orthogonalEdgeStyle;rounded=0;orthogonalLoop=1;jettySize=auto;html=1;exitX=0.5;exitY=1;exitDx=0;exitDy=0;entryX=0.5;entryY=0;entryDx=0;entryDy=0;entryPerimeter=0;" edge="1" parent="1" source="LpT9JigKocmM7MYaPKFG-51" target="LpT9JigKocmM7MYaPKFG-52">
          <mxGeometry relative="1" as="geometry" />
        </mxCell>
        <mxCell id="LpT9JigKocmM7MYaPKFG-51" value="Return clause&amp;nbsp;" style="shape=parallelogram;html=1;strokeWidth=2;perimeter=parallelogramPerimeter;whiteSpace=wrap;rounded=1;arcSize=12;size=0.23;" vertex="1" parent="1">
          <mxGeometry x="1280" y="1889" width="100" height="60" as="geometry" />
        </mxCell>
        <mxCell id="LpT9JigKocmM7MYaPKFG-52" value="Clause Filter End" style="strokeWidth=2;html=1;shape=mxgraph.flowchart.terminator;whiteSpace=wrap;" vertex="1" parent="1">
          <mxGeometry x="1280" y="2032" width="100" height="60" as="geometry" />
        </mxCell>
        <mxCell id="LpT9JigKocmM7MYaPKFG-53" value="&lt;div style=&quot;font-size: 20px;&quot;&gt;Concepts&lt;/div&gt;&lt;div style=&quot;font-size: 20px;&quot;&gt;&lt;br style=&quot;font-size: 20px;&quot;&gt;&lt;/div&gt;&lt;div style=&quot;font-size: 20px;&quot;&gt;Active: Alternative selected in the outline&lt;/div&gt;&lt;div style=&quot;font-size: 20px;&quot;&gt;Active: Clause checkd in the outline&lt;/div&gt;&lt;div style=&quot;font-size: 20px;&quot;&gt;Alternative: Required: if required is also checked&lt;/div&gt;&lt;div style=&quot;font-size: 20px;&quot;&gt;Alternative Checked: clause will be checked&lt;/div&gt;&lt;div style=&quot;font-size: 20px;&quot;&gt;Alternative Default:&lt;/div&gt;" style="rounded=0;whiteSpace=wrap;html=1;align=left;fontStyle=1;fontFamily=Helvetica;fontSize=20;labelPosition=center;verticalLabelPosition=middle;verticalAlign=middle;" vertex="1" parent="1">
          <mxGeometry x="330" y="260" width="642" height="177" as="geometry" />
        </mxCell>
      </root>
    </mxGraphModel>
  </diagram>
</mxfile>
